<?xml version="1.0" encoding="utf-8"?>
<!-- Generator: Adobe Illustrator 16.0.0, SVG Export Plug-In . SVG Version: 6.00 Build 0)  -->
<!DOCTYPE svg PUBLIC "-//W3C//DTD SVG 1.1//EN" "http://www.w3.org/Graphics/SVG/1.1/DTD/svg11.dtd">
<svg id="Layer_1" xmlns="http://www.w3.org/2000/svg" xmlns:xlink="http://www.w3.org/1999/xlink"
	x="0px" y="0px" preserveAspectRatio="xMinYMin meet" width="100%" height="100%" viewBox="0 0 616 616" enable-background="new 0 0 616 616" xml:space="preserve">
<g>
	<rect id="melody-4" y="460" fill="#009245" fill-opacity="0" width="76" height="76"/>
	<rect id="melody-3" y="384" fill="#009245" fill-opacity="0" width="76" height="76"/>
	<rect id="melody-2" y="308" fill="#009245" fill-opacity="0" width="76" height="76"/>
	<rect id="melody-1" y="232" fill="#009245" fill-opacity="0" width="76" height="76"/>
	<rect id="melody-0" y="156" fill="#009245" fill-opacity="0" width="76" height="76"/>
	<rect id="drum-4" x="460" y="540" fill="#009245" fill-opacity="0" width="76" height="76"/>
	<rect id="drum-3" x="384" y="540" fill="#009245" fill-opacity="0" width="76" height="76"/>
	<rect id="drum-2" x="308" y="540" fill="#009245" fill-opacity="0" width="76" height="76"/>
	<rect id="drum-1" x="232" y="540" fill="#009245" fill-opacity="0" width="76" height="76"/>
	<rect id="drum-0" x="156" y="540" fill="#009245" fill-opacity="0" width="76" height="76"/>
	<rect id="bass-4" x="539" y="384" fill="#009245" fill-opacity="0" width="76" height="76"/>
	<rect id="bass-3" x="539" y="308" fill="#009245" fill-opacity="0" width="76" height="76"/>
	<rect id="bass-2" x="539" y="232" fill="#009245" fill-opacity="0" width="76" height="76"/>
	<rect id="bass-1" x="539" y="156" fill="#009245" fill-opacity="0" width="76" height="76"/>
	<rect id="bass-0" x="539" y="80" fill="#009245" fill-opacity="0" width="76" height="76"/>
	<rect id="vocal-4" x="384" fill="#009245" fill-opacity="0" width="76" height="76"/>
	<rect id="vocal-3" x="308" fill="#009245" fill-opacity="0" width="76" height="76"/>
	<rect id="vocal-2" x="232" fill="#009245" fill-opacity="0" width="76" height="76"/>
	<rect id="vocal-1" x="156" fill="#009245" fill-opacity="0" width="76" height="76"/>
	<rect id="vocal-0" x="80" fill="#009245" fill-opacity="0" width="76" height="76"/>
	<polygon id="soundSurface" fill="#009245" fill-opacity="0" points="383.502,80.498 232.502,80.498 80.502,80.498 80.502,232.498 
		80.502,383.498 80.502,535.498 232.502,535.498 383.502,535.498 535.502,535.498 535.502,383.498 535.502,232.498 535.502,80.498 	
		"/>
	<rect id="recDelete" x="623.75" y="203.5" fill="#009245" fill-opacity="0" width="57" height="57"/>
	<rect id="recPlay" x="623.75" y="143.5" fill="#009245" fill-opacity="0" width="57" height="57"/>
	<rect id="recStart" x="623.75" y="83.5" fill="#009245" fill-opacity="0" width="57" height="57"/>
	<rect id="info" x="624.75" y="321.333" fill="#009245" fill-opacity="0" width="57" height="57"/>
	<rect id="keyboard" x="9" y="556.5" fill="#009245" fill-opacity="0" width="57" height="57"/>
	<rect id="submit_1_" x="532.5" y="8.75" fill="#009245" fill-opacity="0" width="153" height="56.27"/>
	<g id="soundbank2">
		<path fill="none" d="M608.75,599.066c0,1.647-1.35,3-3,3h-37c-1.65,0-3-1.353-3-3v-37c0-1.65,1.35-3,3-3h37c1.65,0,3,1.35,3,3
			V599.066z"/>
	</g>
	<g id="soundbank1">
		<path fill="none" d="M657.75,600.066c0,1.647-1.35,3-3,3h-37c-1.65,0-3-1.353-3-3v-37c0-1.65,1.35-3,3-3h37c1.65,0,3,1.35,3,3
			V600.066z"/>
	</g>
</g>
<g>
	<path fill="#BFF2CC" d="M234.5,48"/>
	<text transform="matrix(1 0 0 1 467 42)" fill="#F9D10D" font-family="'Lato-Bold'" font-size="11">VOCALS</text>
	<text transform="matrix(1 0 0 1 564 495)" fill="#5ECBE0" font-family="'Lato-Bold'" font-size="11">BASS</text>
	<text transform="matrix(1 0 0 1 91 585)" fill="#8D83C6" font-family="'Lato-Bold'" font-size="11">DRUMS</text>
	<text transform="matrix(1 0 0 1 13 128)" fill="#EC6660" font-family="'Lato-Bold'" font-size="11">MELODY</text>

</g>
</svg>
