<?xml version="1.0" encoding="utf-8"?>
<!-- Generator: Adobe Illustrator 17.0.2, SVG Export Plug-In . SVG Version: 6.00 Build 0)  -->
<!DOCTYPE svg PUBLIC "-//W3C//DTD SVG 1.1//EN" "http://www.w3.org/Graphics/SVG/1.1/DTD/svg11.dtd">
<svg version="1.1" id="Layer_1" xmlns="http://www.w3.org/2000/svg" xmlns:xlink="http://www.w3.org/1999/xlink" x="0px" y="0px"
	 width="200px" height="200px" viewBox="0 0 200 200" enable-background="new 0 0 200 200" xml:space="preserve">
<path opacity="0.05" enable-background="new    " d="M199.5,0.5H0.5V200h199V0.5z M100,97.8c-27.533,0-65.208-3.199-87.308-10.347
	c-3.144-1.073-4.882-4.2-4.114-7.43c4.674-20.444,16.332-38.977,32.828-52.194C58.009,14.526,78.818,7.2,100,7.2
	s41.991,7.326,58.593,20.629c16.497,13.217,28.154,31.75,32.826,52.184c0.771,3.24-0.967,6.367-4.129,7.446
	C165.208,94.601,127.533,97.8,100,97.8z"/>
<linearGradient id="green-cast_1_" gradientUnits="userSpaceOnUse" x1="31.5905" y1="-18.2388" x2="168.4095" y2="218.7388">
	<stop  offset="0" style="stop-color:#CEEC93"/>
	<stop  offset="1" style="stop-color:#B7E35F"/>
</linearGradient>
<path id="green-cast" fill="url(#green-cast_1_)" d="M100,6c44.541,0,82.847,31.131,92.589,73.745
	c0.932,3.921-1.268,7.606-4.913,8.849C173.142,93.296,140.063,99,100,99s-73.142-5.704-87.677-10.405
	c-3.645-1.243-5.844-4.928-4.913-8.849C17.153,37.131,55.459,6,100,6z M200,0H0v200.5h200V0z"/>
</svg>
